<svg id="图层_1" data-name="图层 1" xmlns="http://www.w3.org/2000/svg" viewBox="0 0 140 35"><title>凡科商城</title><path d="M14.66,5.53A33.6,33.6,0,0,0,0,26.53a22.28,22.28,0,0,1,6.74,7A34,34,0,0,1,14.66,5.53Z" fill="#2bcc6f"/><path d="M15.31,11A35,35,0,0,1,32.48,5.63,57.86,57.86,0,0,1,33.92,0,22,22,0,0,0,22.81,3.3,22.43,22.43,0,0,0,15.31,11Z" fill="#f73"/><path d="M31.78,10a34,34,0,0,0-14.85,4.53A11.66,11.66,0,0,0,11.2,23a34.25,34.25,0,0,0,.4,12,56.91,56.91,0,0,1,22.26-1.62A57.29,57.29,0,0,1,31.78,10Z" fill="#2882ff"/><path d="M111.67,12.68h-3.08l1.08-2.89h-2.53l-1.08,2.89H98.35L97.26,9.79H94.73l1.08,2.89H91.56V29.07h2.38V14.58h16.53V27.22h-2.65l.51,1.9h4.51V13.85A1.18,1.18,0,0,0,111.67,12.68Z" fill="#414247"/><polygon points="110.31 21.14 107.22 15.27 105.08 15.27 108.18 21.16 110.31 21.14" fill="#414247"/><path d="M106.21,18.9H97.55l1.79-3.63-2.13,0-3.12,5.93h2.35l.87-1.76V27h10.07v-7A1.17,1.17,0,0,0,106.21,18.9Zm-6.53,6.22V20.8H105v4.32Z" fill="#414247"/><polygon points="103.39 5.63 101.01 5.63 101.01 7.49 91.42 7.43 91.42 9.33 112.98 9.45 112.98 7.55 103.39 7.5 103.39 5.63" fill="#414247"/><polygon points="120.32 14.83 122.94 14.83 122.94 12.93 120.32 12.93 120.32 7.21 117.95 7.21 117.95 12.93 115.31 12.93 115.31 14.83 117.95 14.83 117.95 26.68 115.3 27.01 115.3 28.93 122.95 27.97 122.96 26.05 120.32 26.38 120.32 14.83" fill="#414247"/><path d="M139.12,29.07a53.2,53.2,0,0,1-2.32-8L139,14.24h-2.5l-.71,2.18c-.26-1.37-.5-2.7-.7-3.94h4V10.59h-4.27c-.46-2.86-.71-4.85-.72-4.9h-2.41c0,.22.26,2.16.68,4.9h-7.69v13.1a23.17,23.17,0,0,1-1.3,5.38h2.45a22.44,22.44,0,0,0,1.3-5.33l0-7.6h1.85v11h-1.48l.51,1.9h3.35V15.41a1.17,1.17,0,0,0-1.17-1.17h-3.08V12.48h5.62c.42,2.62,1,5.68,1.63,8.62l-2.61,8h2.5l1.18-3.62c.38,1.33.77,2.56,1.18,3.62Z" fill="#414247"/><polygon points="138.15 9.8 137.63 6.48 135.17 6.48 135.69 9.8 138.15 9.8" fill="#414247"/><polygon points="48.25 11.48 48.23 11.48 53.03 21.5 55.64 21.5 50.84 11.48 48.25 11.48" fill="#414247"/><path d="M61.48,7.82h0V7.1A1.18,1.18,0,0,0,60.3,5.92H42.15V23.7a23,23,0,0,1-1.31,5.38h2.45a22.44,22.44,0,0,0,1.3-5.33L44.53,7.82H59.1V27.18h0v1.9h3.67l.51-1.9h-1.8Z" fill="#414247"/><path d="M76,16H73.5A59.43,59.43,0,0,0,74.63,27.7h2.48A54.52,54.52,0,0,1,76,16Z" fill="#414247"/><path d="M65.65,27.7h2.49A60.51,60.51,0,0,0,69.26,16H66.82A55,55,0,0,1,65.65,27.7Z" fill="#414247"/><polygon points="86.63 7.73 86.64 7.73 86.64 5.92 86.63 5.92 84.28 5.92 84.26 5.92 84.26 20.49 77.51 21.48 77.51 23.38 84.26 22.39 84.26 29.08 86.63 29.08 86.63 22.05 89.08 21.69 89.08 19.79 86.63 20.14 86.63 7.73" fill="#414247"/><path d="M76.32,14.11v-1.9H72.57V8.81h0v-.6a27.19,27.19,0,0,0,3.75-.79V5.52a50.14,50.14,0,0,1-9.88,1.36v1.9c1.4-.06,2.65-.15,3.76-.27v3.7H66.44v1.9H70.2v15h2.37v-15Z" fill="#414247"/><polygon points="83.32 12.31 80.92 7.28 78.33 7.28 78.31 7.28 80.71 12.31 83.32 12.31" fill="#414247"/><polygon points="83.32 18.66 80.92 13.64 78.33 13.64 78.31 13.64 80.71 18.66 83.32 18.66" fill="#414247"/></svg>